# Blender v2.79 (sub 0) OBJ File: 'sky_cubemap.blend'
# www.blender.org
mtllib sky_cubemap.mtl
o Cube_Cube.001
v -5.383269 -5.353058 5.046991
v -5.383269 4.150607 5.046991
v -5.383269 -5.353058 -4.456674
v -5.383269 4.150607 -4.456674
v 4.120396 -5.353058 5.046991
v 4.120396 4.150607 5.046991
v 4.120396 -5.353058 -4.456674
v 4.120396 4.150607 -4.456674
vt 0.997419 0.332367
vt 0.997419 0.666021
vt 0.748484 0.666021
vt 0.748484 0.332367
vt 0.499550 0.666021
vt 0.499550 0.332367
vt 0.250615 0.666021
vt 0.250615 0.332367
vt 0.001681 0.666021
vt 0.001681 0.332367
vt 0.499550 -0.001287
vt 0.251677 -0.002495
vt 0.499550 0.999675
vt 0.250615 0.999675
vn -1.0000 0.0000 0.0000
vn 0.0000 0.0000 -1.0000
vn 1.0000 0.0000 0.0000
vn 0.0000 0.0000 1.0000
vn 0.0000 -1.0000 0.0000
vn 0.0000 1.0000 0.0000
usemtl sky.lumi
s off
f 1/1/1 2/2/1 4/3/1 3/4/1
f 3/4/2 4/3/2 8/5/2 7/6/2
f 7/6/3 8/5/3 6/7/3 5/8/3
f 5/8/4 6/7/4 2/9/4 1/10/4
f 3/11/5 7/6/5 5/8/5 1/12/5
f 8/5/6 4/13/6 2/14/6 6/7/6
